<svg version="1.1" xmlns="http://www.w3.org/2000/svg" xmlns:xlink="http://www.w3.org/1999/xlink" x="0px" y="0px"
	 viewBox="0 0 2200 2200" style="enable-background:new 0 0 2200 2200;" xml:space="preserve">
	<g id="Objects">
		<g>
			<g>
				<path d="M1722.641,1697.468c0,199.37-172.662,254.95-239.379,254.95c-72.353,0-130.398-20.985-190.949-45.213
					c-123.744-49.513-260.883-49.513-384.626,0c-60.551,24.228-118.596,45.213-190.948,45.213
					c-66.717,0-239.379-55.58-239.379-254.95c0-237.47,235.954-269.37,326.579-409.37c51.251-79.18,116.269-292.59,296.062-292.59
					s244.811,213.41,296.062,292.59C1486.687,1428.098,1722.641,1459.998,1722.641,1697.468z"/>
			</g>
			<path d="M912.158,953.746C814.782,967.15,695.1,810.277,668.322,615.514c-26.788-194.753,49.495-353.641,146.871-367.035
				c97.376-13.394,172.621,124.678,199.399,319.431C1041.38,762.673,1009.545,940.362,912.158,953.746z"/>
			<path d="M616.648,1247.396c-80.837,24.403-203.377-92.699-252.142-254.383c-48.786-161.674-5.304-306.695,75.533-331.088
				c80.827-24.393,163.144,82.708,211.919,244.381C700.743,1067.98,697.495,1223.013,616.648,1247.396z"/>
			<path d="M1287.842,953.746c97.376,13.404,217.059-143.469,243.837-338.232c26.788-194.753-49.495-353.641-146.871-367.035
				c-97.376-13.394-172.621,124.678-199.399,319.431C1158.62,762.673,1190.455,940.362,1287.842,953.746z"/>
			<path d="M1583.352,1247.396c80.837,24.403,203.377-92.699,252.142-254.383c48.786-161.674,5.304-306.695-75.533-331.088
				c-80.827-24.393-163.144,82.708-211.919,244.381C1499.257,1067.98,1502.505,1223.013,1583.352,1247.396z"/>
		</g>
	</g>
</svg>
